# xmcd
#
# Track frame offsets:
#	150
#	21945
#	42366
#	62306
#	84176
#	103087
#	120951
#	142055
#	164261
#	181534
#
# Disc length: 2676 seconds
#
# Revision: 1
# Processed by: cddbd v1.5.2PL0 Copyright (c) Steve Scherf et al.
# Submitted via: EZCDAudioConverter 8.0.2.1
#
DISCID=720a720a
DTITLE=Various Artist - Lời Nói Yêu Đầu Tiên
DYEAR=1999
DGENRE=Miscellaneous
TTITLE0=Vũ Tuấn Đức - Lời Nói Yêu Đầu Tiên
TTITLE1=Lâm Thúy Vân - Cơn gió thoảng
TTITLE2=Lâm Nhật Tiến - Làm thơi tình em đọc
TTITLE3=Trish - Chỉ là giấc mơ
TTITLE4=Gia Huy - Tuổi mười ba
TTITLE5=Thanh Trúc - Trưng Vương khung cửa mùa thu
TTITLE6=Gia Huy, Lê Tâm, Lâm Nhật Tiến - Tình thư của lính
TTITLE7=Diệp Thanh Thanh - Bây giờ còn nhớ hay không
TTITLE8=Ninh Cát Loan Châu - Tuổi ngọc
TTITLE9=Shayla - Trăng thề
EXTD=
EXTT0=
EXTT1=
EXTT2=
EXTT3=
EXTT4=
EXTT5=
EXTT6=
EXTT7=
EXTT8=
EXTT9=
PLAYORDER=
